<?xml version="1.0" encoding="UTF-8"?>
<svg id="Livello_2" xmlns="http://www.w3.org/2000/svg" version="1.1" viewBox="0 0 1269 1184.9">
  <!-- Generator: Adobe Illustrator 29.8.2, SVG Export Plug-In . SVG Version: 2.1.1 Build 3)  -->
  <defs>
    <style>
      .st0 {
        fill: #ff4d0a;
      }
    </style>
  </defs>
  <path class="st0" d="M15.3,593.5c0,7.8,4.7,15.6,11.7,19.4l283.2,152.5c8.1,2.7,16.9.6,22.6-5.4,6.3-6.8,7.4-17.4,2.3-25.7-34-39.7-67.9-79.3-101.9-119h645.7s126,136.9,126,136.9c8.6,8.6,21.8,9.3,31.1,1.6,9.3-7.8,9.3-21.8,1.6-31.1l-98.8-106.6h40.4s126,136.9,126,136.9c8.6,8.6,21.8,9.3,31.1,1.6,9.3-7.8,9.3-21.8,1.6-31.1l-98.8-106.6,49.8-1.6,126,136.9c8.6,8.6,21.8,9.3,31.1,1.6,8.6-8.6,9.3-21.8,1.6-31.1l-119-128.3,119-128.3c8.6-8.6,7.8-21.8-.8-30.3l-.8-.8c-8.6-8.6-23.3-7.8-31.1,1.6l-126,135.3h-51.3l99.6-107.3c8.6-8.6,7.8-21.8-.8-30.3l-.8-.8c-8.6-8.6-23.3-7.8-31.1,1.6l-126,136.9h-40.4s99.6-107.3,99.6-107.3c8.6-8.6,7.8-21.8-.8-30.3l-.8-.8c-8.6-8.6-23.3-7.8-31.1,1.6l-126,136.9H237.9l99.6-116.7c6.6-9.2,5.9-21.6-1.3-29.6-6.4-6.9-16.8-9.2-26-5.4L27,572.6c-7,5.4-11.7,13.2-11.7,21h0ZM226.2,516.4l-53.7,63c-1.3,1.7-4.5,6.8-4.5,14,0,7.8,4,13.2,5.3,14.8l53.7,63-143.1-77.8,142.3-77Z"/>
</svg>